<svg xmlns="http://www.w3.org/2000/svg" width="512" height="512" viewBox="0 0 512 512" version="1.1"><path d="M 113.042 123.845 C 109.629 127.092, 109 128.315, 109 131.706 C 109 134.360, 109.864 136.994, 111.549 139.478 C 112.952 141.544, 113.964 143.331, 113.799 143.448 C 113.635 143.566, 111.250 145.352, 108.500 147.417 L 103.500 151.172 102.944 147.173 C 102.639 144.973, 101.771 142.429, 101.017 141.521 C 99.212 139.346, 94.601 137, 92.131 137 C 89.347 137, 86 142.870, 86 147.752 C 86 151.188, 86.595 152.305, 90.127 155.496 L 94.254 159.224 88.877 164.601 L 83.500 169.978 83.500 165.594 C 83.500 160.579, 81.325 157.497, 76.282 155.362 C 70.946 153.103, 69.385 153.582, 67.609 158.020 C 64.406 166.025, 66.014 170.441, 73.524 174.265 L 77.914 176.500 73.207 183.356 L 68.500 190.212 67.972 185.100 C 67.280 178.412, 64.033 174.984, 57.717 174.272 C 52.655 173.701, 51.732 174.580, 50.500 181.147 C 49.341 187.324, 54.604 193.963, 60.700 194.015 C 64.799 194.050, 65.338 195.514, 62.853 199.865 C 60.213 204.488, 59.415 204.884, 58.508 202.026 C 57.417 198.589, 53.091 196, 48.437 196 C 41.356 196, 39.133 200.596, 42.415 208.452 C 43.995 212.232, 46.305 213.791, 51.839 214.810 L 55.585 215.500 54.202 220.365 L 52.819 225.231 51.052 222.365 C 47.867 217.197, 45.164 215.499, 40.145 215.512 C 33.288 215.529, 32 216.328, 32 220.567 C 32 229.020, 38.295 234.926, 47.357 234.978 C 50.458 234.996, 51.095 235.310, 50.607 236.582 C 50.273 237.452, 50 238.848, 50 239.685 C 50 240.762, 49.011 240.339, 46.617 238.237 C 42.396 234.531, 37.771 233.608, 31.978 235.313 C 27.856 236.527, 27.526 236.865, 27.827 239.566 C 28.751 247.861, 36.189 254, 45.316 254 L 50 254 50 257.918 C 50 260.073, 50.302 262.661, 50.670 263.668 C 51.136 264.940, 50.448 264.623, 48.420 262.632 C 46.814 261.055, 44.458 259.368, 43.185 258.882 C 40.073 257.696, 33.745 257.766, 30.438 259.024 C 28.005 259.949, 27.804 260.403, 28.347 263.750 C 29.070 268.208, 31.515 271.704, 36.078 274.809 C 38.924 276.746, 40.584 277.083, 46.357 276.896 C 53.240 276.672, 53.243 276.674, 54.593 279.884 L 55.944 283.096 52.814 280.867 C 50.859 279.476, 47.693 278.473, 44.385 278.199 C 39.966 277.832, 38.331 278.202, 34.540 280.424 C 30.080 283.037, 30.021 283.139, 31.412 285.794 C 37.153 296.748, 46.742 298.572, 60.140 291.256 C 60.491 291.064, 61.834 292.615, 63.122 294.703 C 64.411 296.792, 67.048 300.290, 68.983 302.479 L 72.500 306.458 68.053 302.714 C 63.026 298.483, 57.336 296.567, 52.666 297.533 C 48.347 298.427, 42 302.882, 42 305.020 C 42 307.251, 49.145 313.747, 52.535 314.598 C 56.902 315.694, 62.980 314.311, 68.283 311.015 L 73.343 307.869 77.658 312.185 L 81.974 316.500 75.073 316.500 C 68.997 316.500, 67.654 316.864, 63.836 319.548 C 61.310 321.323, 59.500 323.389, 59.500 324.497 C 59.500 327.056, 67.142 332.748, 71.736 333.610 C 76.432 334.491, 83.190 332.729, 89.141 329.071 C 93.682 326.280, 93.841 326.256, 96.462 327.975 L 99.140 329.732 94 330.226 C 88.733 330.732, 81.868 334.576, 79.596 338.292 C 78.704 339.750, 78.966 340.461, 81 342.108 C 84.600 345.024, 91.095 347.953, 94 347.972 C 98.324 348.001, 103.721 346.052, 108.816 342.624 C 113.708 339.332, 113.756 339.322, 117.034 341.018 L 120.332 342.723 115.416 343.452 C 109.565 344.318, 101.760 347.503, 99.579 349.913 C 98.135 351.509, 98.331 351.818, 102.149 353.964 C 110.227 358.503, 124.026 357.622, 133.500 351.961 C 136.370 350.247, 136.647 350.245, 139.886 351.931 L 143.272 353.692 137.589 354.279 C 131.996 354.856, 124.737 358.202, 122.047 361.444 C 120.929 362.790, 121.350 363.262, 125.126 364.902 C 134.716 369.066, 144.644 368.162, 155.493 362.136 C 160.498 359.356, 160.502 359.356, 165.783 360.984 L 171.066 362.614 165.702 364.305 C 162.752 365.235, 158.626 367.476, 156.533 369.285 L 152.728 372.574 157.089 374.537 C 160.112 375.898, 163.643 376.500, 168.595 376.500 C 175.022 376.500, 176.585 376.072, 184.140 372.241 L 192.539 367.982 208.019 369.504 C 216.534 370.342, 228.844 371.921, 235.375 373.014 C 241.907 374.106, 247.644 375, 248.125 375 C 248.606 375, 249 375.450, 249 376 C 249 376.550, 248.454 377, 247.787 377 C 247.120 377, 241.845 378.452, 236.065 380.227 L 225.555 383.454 230.027 384.307 C 236.001 385.446, 235.190 385.583, 246.344 381.555 C 251.758 379.600, 257.228 378, 258.500 378 C 259.772 378, 265.242 379.600, 270.656 381.555 C 281.806 385.582, 281.002 385.446, 286.952 384.310 L 291.403 383.461 280.952 380.210 C 275.203 378.423, 269.938 376.969, 269.250 376.980 C 268.563 376.991, 268 376.550, 268 376 C 268 375.450, 268.394 375, 268.875 375 C 269.356 375, 275.093 374.106, 281.625 373.014 C 288.156 371.921, 300.466 370.342, 308.981 369.504 L 324.461 367.982 332.860 372.241 C 340.415 376.072, 341.978 376.500, 348.405 376.500 C 353.357 376.500, 356.888 375.898, 359.911 374.537 L 364.272 372.574 360.516 369.328 C 358.451 367.542, 354.454 365.315, 351.634 364.379 L 346.508 362.676 350.004 361.414 C 355.203 359.538, 356.672 359.713, 363.377 363.014 C 372.426 367.469, 380.182 368.671, 387.029 366.679 C 390.038 365.804, 393.400 364.421, 394.500 363.606 L 396.500 362.124 394.500 360.507 C 390.364 357.164, 382.425 354.019, 378 353.970 L 373.500 353.920 376.368 352.366 C 379.651 350.587, 381.194 350.824, 389.500 354.382 C 397.654 357.875, 406.458 357.931, 413.750 354.536 C 416.637 353.192, 419 351.650, 419 351.109 C 419 349.503, 406.893 344.150, 401.584 343.409 L 396.668 342.723 400.034 340.982 L 403.400 339.242 408.292 342.607 C 414.038 346.559, 420.092 348.409, 424.790 347.647 C 428.817 346.993, 436.895 342.436, 437.688 340.371 C 438.994 336.966, 428.493 330.030, 421.934 329.967 L 418.500 329.933 420.880 327.951 C 423.256 325.972, 423.266 325.972, 426.380 328.050 C 437.851 335.705, 446.594 335.685, 455.365 327.984 L 459.084 324.719 456.876 322.368 C 452.848 318.080, 446.497 315.711, 440.388 316.218 L 434.897 316.673 439.535 311.964 L 444.173 307.256 446.683 309.582 C 453.647 316.036, 464.678 316.625, 470.668 310.863 C 476.511 305.242, 476.611 304.455, 471.905 301.046 C 469.627 299.396, 466.223 297.757, 464.339 297.404 C 460.196 296.626, 453.310 299.032, 448.755 302.848 C 446.181 305.004, 446.452 304.438, 450.205 299.821 C 452.744 296.697, 455.213 293.442, 455.691 292.587 C 456.461 291.212, 457.052 291.277, 460.828 293.145 C 463.176 294.306, 467.077 295.480, 469.498 295.753 C 475.263 296.402, 481.596 292.843, 484.791 287.158 L 487.061 283.120 482.692 280.560 C 477.017 277.234, 470.979 277.178, 465.345 280.400 L 461.191 282.776 462.509 279.640 C 463.818 276.528, 463.875 276.507, 470.299 276.838 C 479.939 277.333, 485.398 273.793, 488.485 265.042 C 490.236 260.080, 489.849 259.482, 484.187 258.392 C 478.277 257.254, 473.039 258.578, 469.229 262.171 C 466.917 264.351, 465.924 264.868, 466.350 263.668 C 466.707 262.661, 467 260.073, 467 257.918 L 467 254 471.750 253.978 C 474.363 253.966, 478.431 253.080, 480.791 252.008 C 484.344 250.396, 485.522 249.102, 487.633 244.490 C 489.036 241.427, 489.955 238.326, 489.677 237.600 C 489.398 236.874, 487.188 235.781, 484.765 235.171 C 479.303 233.796, 473.624 235.127, 469.874 238.662 L 467.247 241.137 466.797 238.069 C 466.366 235.135, 466.504 234.999, 469.923 234.978 C 471.890 234.966, 475.429 234.080, 477.788 233.010 C 482.738 230.763, 485.298 226.072, 484.805 220.152 C 484.514 216.668, 484.286 216.459, 479.848 215.601 C 475.966 214.850, 474.642 215.025, 471.851 216.655 C 470.012 217.729, 467.565 220.005, 466.415 221.712 L 464.323 224.816 462.753 219.908 C 461.303 215.373, 461.310 215, 462.842 214.994 C 470.527 214.969, 475.989 209.914, 475.996 202.821 C 476.001 197.975, 473.875 196, 468.651 196 C 463.696 196, 460.279 198.108, 458.543 202.235 L 457.291 205.214 454.618 200.433 C 451.833 195.449, 452.199 194.050, 456.300 194.015 C 462.396 193.963, 467.659 187.324, 466.500 181.147 C 465.116 173.770, 462.628 172.457, 455.599 175.394 C 451.043 177.298, 449 180.565, 449 185.945 L 449 190.445 443.995 183.493 L 438.990 176.541 443.428 174.285 C 451.013 170.431, 452.603 166.046, 449.358 157.936 C 447.767 153.959, 447.603 153.852, 444.126 154.504 C 436.963 155.848, 433.727 159.467, 433.727 166.135 L 433.727 170.206 428.237 164.715 L 422.746 159.224 426.873 155.496 C 430.405 152.305, 431 151.188, 431 147.752 C 431 142.870, 427.653 137, 424.869 137 C 422.399 137, 417.788 139.346, 415.983 141.521 C 415.229 142.429, 414.361 144.973, 414.056 147.173 L 413.500 151.172 408.500 147.417 C 405.750 145.352, 403.365 143.566, 403.201 143.448 C 403.036 143.331, 404.048 141.544, 405.451 139.478 C 407.136 136.994, 408 134.360, 408 131.706 C 408 128.314, 407.371 127.092, 403.949 123.837 C 399.367 119.478, 398.170 119.632, 393.501 125.181 C 391.231 127.878, 390.864 129.099, 391.261 132.622 L 391.736 136.837 389.118 135.730 C 387.678 135.121, 385.375 133.634, 384 132.426 C 379.095 128.114, 374.790 126.650, 365.676 126.192 C 355.579 125.684, 353.783 126.494, 356.344 130.402 C 358.844 134.218, 365.752 137.744, 373.274 139.043 C 380.245 140.248, 387 139.684, 387 137.898 C 387 136.979, 391.103 139.095, 396.896 143 C 399.010 144.425, 398.841 144.510, 393.482 144.696 C 388.072 144.883, 378.458 147.367, 376.621 149.052 C 375.289 150.273, 380.418 154.509, 384.829 155.831 C 390.544 157.543, 398.986 157.260, 405.838 155.127 L 411.855 153.255 415.124 156.627 L 418.392 160 410.946 160.061 C 406.822 160.095, 401.047 160.898, 398 161.861 L 392.500 163.600 395.579 166.706 C 397.272 168.414, 400.422 170.301, 402.579 170.900 C 407.940 172.389, 417.446 172.257, 423.638 170.608 L 428.777 169.240 432.199 173.370 C 437.425 179.676, 437.565 180.133, 433.787 178.560 C 428.524 176.367, 421.978 175.784, 415.118 176.897 C 411.607 177.466, 408.509 178.158, 408.232 178.435 C 406.972 179.695, 411.440 184.068, 416.537 186.562 C 421.453 188.967, 423.222 189.289, 430.824 189.162 C 435.596 189.083, 440.367 188.901, 441.427 188.759 C 442.849 188.568, 444.225 190.034, 446.677 194.357 C 450.596 201.264, 450.767 202.050, 447.750 199.291 C 442.315 194.321, 432.278 191.981, 422.614 193.431 C 416.819 194.300, 416.738 195.764, 422.223 200.459 C 427.844 205.270, 435.075 207.299, 444.995 206.849 L 452.783 206.495 454.396 210.998 C 456.594 217.129, 456.516 217.281, 452.332 215.038 C 446.889 212.120, 438.603 210.702, 431.466 211.467 C 425.905 212.062, 425.279 212.350, 425.736 214.097 C 426.511 217.062, 432.527 221.544, 438.186 223.371 C 440.967 224.269, 446.517 225, 450.556 225 C 454.585 225, 458.107 225.363, 458.381 225.807 C 458.655 226.252, 459.193 229.064, 459.576 232.057 L 460.271 237.500 457.776 235.207 C 454.294 232.009, 446.366 229.196, 438.586 228.399 C 432.744 227.800, 432 227.920, 432 229.458 C 432 235.161, 441.838 242.223, 453.180 244.660 L 461 246.341 461 251.232 L 461 256.124 456.672 253.016 C 451.664 249.420, 446.057 247.546, 437.250 246.527 C 429.846 245.670, 429.404 246.497, 433.927 252.741 C 437.433 257.581, 445.009 261.565, 453.824 263.204 C 458.678 264.107, 459.923 264.698, 459.568 265.929 C 459.318 266.793, 458.812 269.637, 458.443 272.250 C 458.075 274.863, 457.458 277, 457.074 277 C 456.689 277, 455.112 275.683, 453.570 274.073 C 450.091 270.441, 442.455 267.078, 435.938 266.306 C 431.480 265.778, 431 265.915, 431 267.711 C 431 273.230, 441.575 281.919, 450.250 283.527 C 452.312 283.910, 453.998 284.510, 453.996 284.861 C 453.994 285.213, 453.065 287.021, 451.932 288.880 L 449.871 292.261 448.231 289.880 C 445.005 285.196, 438.698 281.716, 431.250 280.512 C 427.243 279.863, 427 279.961, 427 282.216 C 427 283.532, 428.321 286.691, 429.935 289.237 C 432.198 292.805, 434.233 294.505, 438.819 296.660 L 444.767 299.454 440.155 304.852 L 435.544 310.249 434.181 306.875 C 431.869 301.150, 428.244 297.258, 423.555 295.468 C 417.491 293.152, 416 293.903, 416 299.273 C 416 304.962, 420.376 312.001, 425.392 314.382 L 429.054 316.120 423.777 320.510 L 418.500 324.901 417.871 321.224 C 417.132 316.910, 411.997 311.949, 406.535 310.272 C 403.369 309.300, 402.824 309.413, 401.493 311.314 C 398.155 316.078, 401.293 323.638, 408.222 327.524 L 411.884 329.578 405.947 333.289 C 402.682 335.330, 399.783 337, 399.505 337 C 399.227 337, 399 335.492, 399 333.648 C 399 329.347, 395.532 324.318, 390.705 321.621 L 386.909 319.500 384.455 322.306 C 383.105 323.849, 382 325.977, 382 327.036 C 382 330.725, 385.249 337.041, 388.244 339.174 L 391.262 341.322 387.381 343.315 C 385.246 344.411, 382.062 345.909, 380.305 346.644 L 377.111 347.981 378.095 345.158 C 379.258 341.821, 378.093 338.122, 374.319 333.174 C 372.202 330.399, 371.333 329.949, 369.138 330.494 C 360.801 332.562, 358.643 343.310, 365.434 348.945 C 366.295 349.660, 367 350.598, 367 351.031 C 367 351.696, 355.766 356, 354.029 356 C 353.709 356, 353.616 354.228, 353.823 352.062 C 354.328 346.761, 350.654 340, 347.266 340 C 342.875 340, 339.153 342.757, 337.901 346.936 C 336.863 350.400, 336.981 351.352, 338.909 355.050 C 340.110 357.355, 340.960 359.337, 340.797 359.455 C 340.633 359.573, 337.350 360.341, 333.500 361.163 L 326.500 362.656 326.841 358.454 C 327.046 355.918, 326.540 353.012, 325.565 351.126 C 324.166 348.420, 323.414 348, 319.974 348 C 313.303 348, 308.933 354.237, 311.070 360.711 C 311.691 362.594, 312.042 364.280, 311.850 364.459 C 311.657 364.637, 304.751 365.756, 296.501 366.945 C 288.252 368.134, 276.374 370.193, 270.105 371.521 L 258.708 373.935 244.104 371.013 C 236.072 369.406, 224.100 367.356, 217.500 366.457 C 210.900 365.559, 205.385 364.712, 205.245 364.574 C 205.106 364.437, 205.490 362.893, 206.099 361.145 C 208.422 354.483, 203.969 348, 197.071 348 C 193.580 348, 192.839 348.411, 191.435 351.126 C 190.460 353.012, 189.954 355.918, 190.159 358.454 L 190.500 362.656 183.500 361.163 C 179.650 360.341, 176.361 359.567, 176.191 359.442 C 176.020 359.317, 176.808 357.485, 177.941 355.372 C 180.406 350.772, 180.499 348.866, 178.452 344.907 C 176.859 341.827, 173.570 340, 169.619 340 C 166.349 340, 162.682 346.867, 163.177 352.062 C 163.384 354.228, 163.291 356, 162.971 356 C 162.650 356, 159.594 355.056, 156.179 353.903 L 149.970 351.806 152.985 347.706 C 157.695 341.301, 156.625 334.474, 150.453 331.545 C 146.371 329.608, 144.818 330.189, 141.684 334.825 C 138.399 339.686, 137.743 342.195, 138.939 345.340 L 139.929 347.943 134.214 345.380 C 131.072 343.969, 127.934 342.583, 127.243 342.298 C 126.426 341.962, 127.371 340.435, 129.937 337.945 C 134.566 333.453, 136.115 328.060, 133.897 324.157 C 131.334 319.645, 129.591 319.318, 125.013 322.491 C 120.296 325.760, 118 329.512, 118 333.950 C 118 335.628, 117.758 337, 117.462 337 C 117.166 337, 114.144 335.233, 110.747 333.073 C 104.771 329.274, 104.658 329.124, 107.261 328.471 C 108.741 328.099, 111.538 326.040, 113.476 323.895 C 117.493 319.449, 118.162 314.624, 115.250 311.109 L 113.500 308.996 108.500 311.357 C 102.391 314.240, 100.287 316.496, 99.276 321.248 L 98.500 324.896 93.385 320.643 L 88.270 316.389 92.098 314.186 C 97.399 311.135, 101.213 304.403, 100.810 298.809 C 100.509 294.626, 100.403 294.504, 97.195 294.653 C 92.074 294.891, 86.560 299.144, 83.774 305.006 L 81.344 310.118 76.789 304.786 L 72.233 299.454 78.148 296.676 C 84.925 293.492, 90 287.518, 90 282.725 C 90 279.912, 89.826 279.785, 86.804 280.389 C 78.159 282.118, 75.318 283.418, 71.208 287.529 L 66.882 291.855 64.945 288.677 C 63.879 286.930, 63.006 285.220, 63.004 284.878 C 63.002 284.536, 64.688 283.985, 66.750 283.655 C 74.931 282.345, 86 273.178, 86 267.713 C 86 265.911, 85.524 265.778, 81.001 266.313 C 74.582 267.074, 67.346 270.284, 63.363 274.138 C 61.637 275.808, 59.967 276.756, 59.651 276.245 C 59.336 275.734, 58.684 272.810, 58.204 269.747 L 57.331 264.178 61.914 263.490 C 68.177 262.551, 75.416 259.683, 79.623 256.474 C 83.154 253.781, 86.905 247.572, 85.718 246.385 C 84.668 245.335, 70.043 247.884, 65.611 249.890 C 63.350 250.914, 60.506 252.708, 59.292 253.876 C 58.077 255.044, 56.920 256, 56.721 256 C 55.960 256, 55.940 245.999, 56.701 245.983 C 60.553 245.899, 72.087 242.553, 75.580 240.506 C 80.385 237.690, 85 232.303, 85 229.511 C 85 225.532, 64.883 229.982, 59.247 235.207 L 56.774 237.500 57.502 232 C 57.901 228.975, 58.429 226.162, 58.673 225.750 C 58.918 225.338, 62.385 225, 66.378 225 C 76.192 225, 83.061 222.813, 87.998 218.117 C 90.199 216.023, 92 213.822, 92 213.227 C 92 211.702, 82.189 210.654, 75.831 211.498 C 72.899 211.888, 68.362 213.267, 65.750 214.562 C 60.439 217.196, 60.451 217.209, 62.804 211.093 L 64.500 206.687 72.500 206.883 C 82.645 207.131, 89.844 205.040, 95.060 200.327 C 101.342 194.651, 99.993 193.041, 88.932 193.014 C 81.721 192.996, 73.940 195.343, 69.833 198.775 L 66.571 201.500 70.153 195 C 72.836 190.133, 74.209 188.575, 75.618 188.799 C 76.653 188.963, 81.325 189.161, 86 189.239 C 92.856 189.352, 95.464 188.946, 99.488 187.141 C 104.939 184.694, 109 181.377, 109 179.371 C 109 176.303, 90.233 175.510, 83.720 178.302 C 79.458 180.130, 79.445 180.173, 85.397 172.832 L 88.294 169.259 93.397 170.617 C 100.273 172.448, 111.184 172.368, 115.768 170.452 C 119.418 168.927, 124 165.312, 124 163.957 C 124 162.534, 112.126 160, 105.454 160 L 98.538 160 101.739 156.799 L 104.940 153.599 112.005 155.431 C 121.757 157.961, 131.507 157.254, 136.999 153.619 C 139.200 152.163, 141 150.505, 141 149.935 C 141 148.311, 134.705 146.083, 126.526 144.811 L 119.051 143.649 124.276 140.487 C 127.731 138.396, 129.743 137.693, 130.219 138.412 C 131.552 140.429, 146.002 139.535, 151.522 137.094 C 157.427 134.483, 162 130.381, 162 127.697 C 162 125.894, 161.360 125.795, 152.250 126.190 C 142.132 126.628, 138.116 127.929, 133 132.426 C 131.625 133.634, 129.375 135.097, 128 135.676 C 125.536 136.715, 125.505 136.669, 125.842 132.470 C 126.143 128.727, 125.735 127.712, 122.476 124.105 C 120.436 121.847, 118.389 120, 117.926 120 C 117.463 120, 115.265 121.730, 113.042 123.845 M 128.750 204.250 L 126.500 206.500 141.750 206.776 L 157 207.052 157.024 238.776 C 157.046 267.878, 157.435 274.267, 159.492 279.250 C 160.841 282.519, 158.241 281.027, 156.614 277.599 C 155.231 274.685, 155 269.527, 155 241.599 L 155 209 139.750 209.033 C 126.329 209.063, 124.230 209.292, 122.250 210.944 C 121.013 211.976, 120 213.086, 120 213.410 C 120 213.735, 126.951 214, 135.447 214 L 150.895 214 151.209 245.250 C 151.382 262.438, 151.904 277.288, 152.369 278.250 C 153.787 281.187, 151.440 280.232, 149.911 277.250 C 148.814 275.113, 148.432 267.983, 148.194 245.250 L 147.889 216 132.599 216 C 119.057 216, 117.121 216.209, 115.655 217.829 C 114.745 218.835, 113.999 219.847, 113.999 220.079 C 113.998 220.310, 120.748 220.353, 128.999 220.173 L 144 219.846 144 242.798 C 144 255.422, 144.219 267.269, 144.486 269.125 C 144.902 272.010, 144.844 272.137, 144.086 270 C 143.598 268.625, 143.155 257.712, 143.100 245.750 L 143 224 127.442 224 L 111.884 224 112.192 251.750 C 112.493 278.908, 112.552 279.606, 114.958 284.458 C 121.803 298.266, 134.972 304.229, 158.456 304.154 C 177.100 304.094, 191.103 299.370, 198.600 290.612 C 204.960 283.182, 206 277.317, 206 248.895 L 206 224 191.094 224 L 176.187 224 175.825 247.250 C 175.437 272.209, 174.928 274.836, 169.783 278.439 C 166.220 280.935, 164.053 280.372, 162.449 276.532 C 161.276 273.725, 161 266.298, 161 237.532 L 161 202 146 202 C 131.778 202, 130.883 202.117, 128.750 204.250 M 218.607 203.582 C 216.856 208.146, 215.506 208, 259.500 208 C 288.207 208, 301 207.671, 301 206.934 C 301 206.348, 300.534 204.998, 299.965 203.934 C 298.968 202.072, 297.455 202, 259.072 202 C 223.649 202, 219.146 202.176, 218.607 203.582 M 307.667 202.667 C 307.300 203.033, 307 218.642, 307 237.353 C 307 263.601, 307.331 272.757, 308.449 277.436 C 309.246 280.771, 310.093 284.400, 310.333 285.500 C 310.572 286.600, 310.820 272.538, 310.884 254.250 L 311 221 326.500 221 C 335.025 221, 342 220.745, 342 220.434 C 342 220.123, 341.534 218.998, 340.965 217.934 C 340.012 216.154, 338.737 216, 324.965 216 C 315.655 216, 310 215.622, 310 215 C 310 214.379, 315.536 214, 324.607 214 C 337.516 214, 339.143 213.816, 338.607 212.418 C 338.273 211.548, 338 210.423, 338 209.918 C 338 209.410, 331.185 208.902, 322.750 208.780 L 307.500 208.559 321.750 208.252 C 336.325 207.938, 336.991 207.721, 334.965 203.934 C 334.024 202.177, 332.761 202, 321.131 202 C 314.093 202, 308.033 202.300, 307.667 202.667 M 363.667 202.667 C 363.300 203.033, 363 208.883, 363 215.667 L 363 228 353 228 C 343.667 228, 343 227.867, 343 226 C 343 224.086, 342.333 224, 327.500 224 L 312 224 312 262.500 L 312 301 327.500 301 L 343 301 343 285.500 L 343 270 359.500 270 L 376 270 376 285.500 L 376 301 391.500 301 L 407 301 407 262.500 L 407 224 391.500 224 L 376 224 376 237 L 376 250 359.500 250 C 345.500 250, 343 249.773, 343 248.500 C 343 247.229, 345.444 247, 359 247 L 375 247 375 234.027 L 375 221.053 389.521 220.777 L 404.042 220.500 402.464 218.250 C 400.952 216.093, 400.287 216, 386.443 216 L 372 216 372 228.500 L 372 241 357.250 240.781 L 342.500 240.561 356.250 240.252 L 370 239.944 370 226.999 L 370 214.053 384.521 213.777 L 399.042 213.500 397.464 211.250 C 395.952 209.094, 395.286 209, 381.473 209 L 367.060 209 366.780 221.750 L 366.500 234.500 355.248 234.551 L 343.996 234.603 354.998 234.269 L 366 233.934 366 220.967 L 366 208 380.500 208 C 388.475 208, 395 207.650, 395 207.223 C 395 206.795, 394.299 205.445, 393.443 204.223 C 391.963 202.109, 391.213 202, 378.110 202 C 370.533 202, 364.033 202.300, 363.667 202.667 M 184.218 205.023 C 182.496 207.780, 183.081 207.918, 198 208.271 L 210.500 208.568 196.285 208.784 C 183.379 208.980, 181.975 209.178, 181.035 210.934 C 180.466 211.998, 180 213.123, 180 213.434 C 180 213.745, 186.525 214, 194.500 214 C 203.500 214, 209 214.379, 209 215 C 209 215.622, 203.345 216, 194.035 216 C 180.162 216, 178.993 216.144, 178.014 217.973 C 176.988 219.891, 177.375 219.954, 191.729 220.223 L 206.500 220.500 207.027 245 C 207.317 258.475, 207.665 268.600, 207.801 267.500 C 207.938 266.400, 208.938 262.843, 210.025 259.595 C 211.785 254.334, 212 250.925, 212 228.345 L 212 203 198.741 203 C 186.515 203, 185.383 203.158, 184.218 205.023 M 216.607 210.582 C 216.273 211.452, 216 212.577, 216 213.082 C 216 213.625, 233.750 214, 259.500 214 C 283.425 214, 303 213.745, 303 213.434 C 303 213.123, 302.534 211.998, 301.965 210.934 C 300.967 209.069, 299.432 209, 259.072 209 C 221.825 209, 217.147 209.174, 216.607 210.582 M 214.035 217.934 C 213.466 218.998, 213 220.123, 213 220.434 C 213 220.745, 233.925 221, 259.500 221 C 285.075 221, 306 220.745, 306 220.434 C 306 220.123, 305.534 218.998, 304.965 217.934 C 303.965 216.066, 302.403 216, 259.500 216 C 216.597 216, 215.035 216.066, 214.035 217.934 M 213 232.990 L 213 243 228.500 243 L 244 243 244 272.500 L 244 302 259.500 302 L 275 302 275 272.500 L 275 243 290.536 243 L 306.072 243 305.786 233.250 L 305.500 223.500 259.250 223.240 L 213 222.980 213 232.990" stroke="none" fill="#f1f6f3" fill-rule="evenodd"/><path d="M 0 256.002 L 0 512.004 256.250 511.752 L 512.500 511.500 512.752 255.750 L 513.004 0 256.502 0 L 0 0 0 256.002 M 0.492 256.500 C 0.492 397.300, 0.608 454.751, 0.750 384.170 C 0.892 313.588, 0.892 198.388, 0.750 128.170 C 0.608 57.951, 0.492 115.700, 0.492 256.500 M 113.042 123.845 C 109.629 127.092, 109 128.315, 109 131.706 C 109 134.360, 109.864 136.994, 111.549 139.478 C 112.952 141.544, 113.964 143.331, 113.799 143.448 C 113.635 143.566, 111.250 145.352, 108.500 147.417 L 103.500 151.172 102.944 147.173 C 102.639 144.973, 101.771 142.429, 101.017 141.521 C 99.212 139.346, 94.601 137, 92.131 137 C 89.347 137, 86 142.870, 86 147.752 C 86 151.188, 86.595 152.305, 90.127 155.496 L 94.254 159.224 88.877 164.601 L 83.500 169.978 83.500 165.594 C 83.500 160.579, 81.325 157.497, 76.282 155.362 C 70.946 153.103, 69.385 153.582, 67.609 158.020 C 64.406 166.025, 66.014 170.441, 73.524 174.265 L 77.914 176.500 73.207 183.356 L 68.500 190.212 67.972 185.100 C 67.280 178.412, 64.033 174.984, 57.717 174.272 C 52.655 173.701, 51.732 174.580, 50.500 181.147 C 49.341 187.324, 54.604 193.963, 60.700 194.015 C 64.799 194.050, 65.338 195.514, 62.853 199.865 C 60.213 204.488, 59.415 204.884, 58.508 202.026 C 57.417 198.589, 53.091 196, 48.437 196 C 41.356 196, 39.133 200.596, 42.415 208.452 C 43.995 212.232, 46.305 213.791, 51.839 214.810 L 55.585 215.500 54.202 220.365 L 52.819 225.231 51.052 222.365 C 47.867 217.197, 45.164 215.499, 40.145 215.512 C 33.288 215.529, 32 216.328, 32 220.567 C 32 229.020, 38.295 234.926, 47.357 234.978 C 50.458 234.996, 51.095 235.310, 50.607 236.582 C 50.273 237.452, 50 238.848, 50 239.685 C 50 240.762, 49.011 240.339, 46.617 238.237 C 42.396 234.531, 37.771 233.608, 31.978 235.313 C 27.856 236.527, 27.526 236.865, 27.827 239.566 C 28.751 247.861, 36.189 254, 45.316 254 L 50 254 50 257.918 C 50 260.073, 50.302 262.661, 50.670 263.668 C 51.136 264.940, 50.448 264.623, 48.420 262.632 C 46.814 261.055, 44.458 259.368, 43.185 258.882 C 40.073 257.696, 33.745 257.766, 30.438 259.024 C 28.005 259.949, 27.804 260.403, 28.347 263.750 C 29.070 268.208, 31.515 271.704, 36.078 274.809 C 38.924 276.746, 40.584 277.083, 46.357 276.896 C 53.240 276.672, 53.243 276.674, 54.593 279.884 L 55.944 283.096 52.814 280.867 C 50.859 279.476, 47.693 278.473, 44.385 278.199 C 39.966 277.832, 38.331 278.202, 34.540 280.424 C 30.080 283.037, 30.021 283.139, 31.412 285.794 C 37.153 296.748, 46.742 298.572, 60.140 291.256 C 60.491 291.064, 61.834 292.615, 63.122 294.703 C 64.411 296.792, 67.048 300.290, 68.983 302.479 L 72.500 306.458 68.053 302.714 C 63.026 298.483, 57.336 296.567, 52.666 297.533 C 48.347 298.427, 42 302.882, 42 305.020 C 42 307.251, 49.145 313.747, 52.535 314.598 C 56.902 315.694, 62.980 314.311, 68.283 311.015 L 73.343 307.869 77.658 312.185 L 81.974 316.500 75.073 316.500 C 68.997 316.500, 67.654 316.864, 63.836 319.548 C 61.310 321.323, 59.500 323.389, 59.500 324.497 C 59.500 327.056, 67.142 332.748, 71.736 333.610 C 76.432 334.491, 83.190 332.729, 89.141 329.071 C 93.682 326.280, 93.841 326.256, 96.462 327.975 L 99.140 329.732 94 330.226 C 88.733 330.732, 81.868 334.576, 79.596 338.292 C 78.704 339.750, 78.966 340.461, 81 342.108 C 84.600 345.024, 91.095 347.953, 94 347.972 C 98.324 348.001, 103.721 346.052, 108.816 342.624 C 113.708 339.332, 113.756 339.322, 117.034 341.018 L 120.332 342.723 115.416 343.452 C 109.565 344.318, 101.760 347.503, 99.579 349.913 C 98.135 351.509, 98.331 351.818, 102.149 353.964 C 110.227 358.503, 124.026 357.622, 133.500 351.961 C 136.370 350.247, 136.647 350.245, 139.886 351.931 L 143.272 353.692 137.589 354.279 C 131.996 354.856, 124.737 358.202, 122.047 361.444 C 120.929 362.790, 121.350 363.262, 125.126 364.902 C 134.716 369.066, 144.644 368.162, 155.493 362.136 C 160.498 359.356, 160.502 359.356, 165.783 360.984 L 171.066 362.614 165.702 364.305 C 162.752 365.235, 158.626 367.476, 156.533 369.285 L 152.728 372.574 157.089 374.537 C 160.112 375.898, 163.643 376.500, 168.595 376.500 C 175.022 376.500, 176.585 376.072, 184.140 372.241 L 192.539 367.982 208.019 369.504 C 216.534 370.342, 228.844 371.921, 235.375 373.014 C 241.907 374.106, 247.644 375, 248.125 375 C 248.606 375, 249 375.450, 249 376 C 249 376.550, 248.454 377, 247.787 377 C 247.120 377, 241.845 378.452, 236.065 380.227 L 225.555 383.454 230.027 384.307 C 236.001 385.446, 235.190 385.583, 246.344 381.555 C 251.758 379.600, 257.228 378, 258.500 378 C 259.772 378, 265.242 379.600, 270.656 381.555 C 281.806 385.582, 281.002 385.446, 286.952 384.310 L 291.403 383.461 280.952 380.210 C 275.203 378.423, 269.938 376.969, 269.250 376.980 C 268.563 376.991, 268 376.550, 268 376 C 268 375.450, 268.394 375, 268.875 375 C 269.356 375, 275.093 374.106, 281.625 373.014 C 288.156 371.921, 300.466 370.342, 308.981 369.504 L 324.461 367.982 332.860 372.241 C 340.415 376.072, 341.978 376.500, 348.405 376.500 C 353.357 376.500, 356.888 375.898, 359.911 374.537 L 364.272 372.574 360.516 369.328 C 358.451 367.542, 354.454 365.315, 351.634 364.379 L 346.508 362.676 350.004 361.414 C 355.203 359.538, 356.672 359.713, 363.377 363.014 C 372.426 367.469, 380.182 368.671, 387.029 366.679 C 390.038 365.804, 393.400 364.421, 394.500 363.606 L 396.500 362.124 394.500 360.507 C 390.364 357.164, 382.425 354.019, 378 353.970 L 373.500 353.920 376.368 352.366 C 379.651 350.587, 381.194 350.824, 389.500 354.382 C 397.654 357.875, 406.458 357.931, 413.750 354.536 C 416.637 353.192, 419 351.650, 419 351.109 C 419 349.503, 406.893 344.150, 401.584 343.409 L 396.668 342.723 400.034 340.982 L 403.400 339.242 408.292 342.607 C 414.038 346.559, 420.092 348.409, 424.790 347.647 C 428.817 346.993, 436.895 342.436, 437.688 340.371 C 438.994 336.966, 428.493 330.030, 421.934 329.967 L 418.500 329.933 420.880 327.951 C 423.256 325.972, 423.266 325.972, 426.380 328.050 C 437.851 335.705, 446.594 335.685, 455.365 327.984 L 459.084 324.719 456.876 322.368 C 452.848 318.080, 446.497 315.711, 440.388 316.218 L 434.897 316.673 439.535 311.964 L 444.173 307.256 446.683 309.582 C 453.647 316.036, 464.678 316.625, 470.668 310.863 C 476.511 305.242, 476.611 304.455, 471.905 301.046 C 469.627 299.396, 466.223 297.757, 464.339 297.404 C 460.196 296.626, 453.310 299.032, 448.755 302.848 C 446.181 305.004, 446.452 304.438, 450.205 299.821 C 452.744 296.697, 455.213 293.442, 455.691 292.587 C 456.461 291.212, 457.052 291.277, 460.828 293.145 C 463.176 294.306, 467.077 295.480, 469.498 295.753 C 475.263 296.402, 481.596 292.843, 484.791 287.158 L 487.061 283.120 482.692 280.560 C 477.017 277.234, 470.979 277.178, 465.345 280.400 L 461.191 282.776 462.509 279.640 C 463.818 276.528, 463.875 276.507, 470.299 276.838 C 479.939 277.333, 485.398 273.793, 488.485 265.042 C 490.236 260.080, 489.849 259.482, 484.187 258.392 C 478.277 257.254, 473.039 258.578, 469.229 262.171 C 466.917 264.351, 465.924 264.868, 466.350 263.668 C 466.707 262.661, 467 260.073, 467 257.918 L 467 254 471.750 253.978 C 474.363 253.966, 478.431 253.080, 480.791 252.008 C 484.344 250.396, 485.522 249.102, 487.633 244.490 C 489.036 241.427, 489.955 238.326, 489.677 237.600 C 489.398 236.874, 487.188 235.781, 484.765 235.171 C 479.303 233.796, 473.624 235.127, 469.874 238.662 L 467.247 241.137 466.797 238.069 C 466.366 235.135, 466.504 234.999, 469.923 234.978 C 471.890 234.966, 475.429 234.080, 477.788 233.010 C 482.738 230.763, 485.298 226.072, 484.805 220.152 C 484.514 216.668, 484.286 216.459, 479.848 215.601 C 475.966 214.850, 474.642 215.025, 471.851 216.655 C 470.012 217.729, 467.565 220.005, 466.415 221.712 L 464.323 224.816 462.753 219.908 C 461.303 215.373, 461.310 215, 462.842 214.994 C 470.527 214.969, 475.989 209.914, 475.996 202.821 C 476.001 197.975, 473.875 196, 468.651 196 C 463.696 196, 460.279 198.108, 458.543 202.235 L 457.291 205.214 454.618 200.433 C 451.833 195.449, 452.199 194.050, 456.300 194.015 C 462.396 193.963, 467.659 187.324, 466.500 181.147 C 465.116 173.770, 462.628 172.457, 455.599 175.394 C 451.043 177.298, 449 180.565, 449 185.945 L 449 190.445 443.995 183.493 L 438.990 176.541 443.428 174.285 C 451.013 170.431, 452.603 166.046, 449.358 157.936 C 447.767 153.959, 447.603 153.852, 444.126 154.504 C 436.963 155.848, 433.727 159.467, 433.727 166.135 L 433.727 170.206 428.237 164.715 L 422.746 159.224 426.873 155.496 C 430.405 152.305, 431 151.188, 431 147.752 C 431 142.870, 427.653 137, 424.869 137 C 422.399 137, 417.788 139.346, 415.983 141.521 C 415.229 142.429, 414.361 144.973, 414.056 147.173 L 413.500 151.172 408.500 147.417 C 405.750 145.352, 403.365 143.566, 403.201 143.448 C 403.036 143.331, 404.048 141.544, 405.451 139.478 C 407.136 136.994, 408 134.360, 408 131.706 C 408 128.314, 407.371 127.092, 403.949 123.837 C 399.367 119.478, 398.170 119.632, 393.501 125.181 C 391.231 127.878, 390.864 129.099, 391.261 132.622 L 391.736 136.837 389.118 135.730 C 387.678 135.121, 385.375 133.634, 384 132.426 C 379.095 128.114, 374.790 126.650, 365.676 126.192 C 355.579 125.684, 353.783 126.494, 356.344 130.402 C 358.844 134.218, 365.752 137.744, 373.274 139.043 C 380.245 140.248, 387 139.684, 387 137.898 C 387 136.979, 391.103 139.095, 396.896 143 C 399.010 144.425, 398.841 144.510, 393.482 144.696 C 388.072 144.883, 378.458 147.367, 376.621 149.052 C 375.289 150.273, 380.418 154.509, 384.829 155.831 C 390.544 157.543, 398.986 157.260, 405.838 155.127 L 411.855 153.255 415.124 156.627 L 418.392 160 410.946 160.061 C 406.822 160.095, 401.047 160.898, 398 161.861 L 392.500 163.600 395.579 166.706 C 397.272 168.414, 400.422 170.301, 402.579 170.900 C 407.940 172.389, 417.446 172.257, 423.638 170.608 L 428.777 169.240 432.199 173.370 C 437.425 179.676, 437.565 180.133, 433.787 178.560 C 428.524 176.367, 421.978 175.784, 415.118 176.897 C 411.607 177.466, 408.509 178.158, 408.232 178.435 C 406.972 179.695, 411.440 184.068, 416.537 186.562 C 421.453 188.967, 423.222 189.289, 430.824 189.162 C 435.596 189.083, 440.367 188.901, 441.427 188.759 C 442.849 188.568, 444.225 190.034, 446.677 194.357 C 450.596 201.264, 450.767 202.050, 447.750 199.291 C 442.315 194.321, 432.278 191.981, 422.614 193.431 C 416.819 194.300, 416.738 195.764, 422.223 200.459 C 427.844 205.270, 435.075 207.299, 444.995 206.849 L 452.783 206.495 454.396 210.998 C 456.594 217.129, 456.516 217.281, 452.332 215.038 C 446.889 212.120, 438.603 210.702, 431.466 211.467 C 425.905 212.062, 425.279 212.350, 425.736 214.097 C 426.511 217.062, 432.527 221.544, 438.186 223.371 C 440.967 224.269, 446.517 225, 450.556 225 C 454.585 225, 458.107 225.363, 458.381 225.807 C 458.655 226.252, 459.193 229.064, 459.576 232.057 L 460.271 237.500 457.776 235.207 C 454.294 232.009, 446.366 229.196, 438.586 228.399 C 432.744 227.800, 432 227.920, 432 229.458 C 432 235.161, 441.838 242.223, 453.180 244.660 L 461 246.341 461 251.232 L 461 256.124 456.672 253.016 C 451.664 249.420, 446.057 247.546, 437.250 246.527 C 429.846 245.670, 429.404 246.497, 433.927 252.741 C 437.433 257.581, 445.009 261.565, 453.824 263.204 C 458.678 264.107, 459.923 264.698, 459.568 265.929 C 459.318 266.793, 458.812 269.637, 458.443 272.250 C 458.075 274.863, 457.458 277, 457.074 277 C 456.689 277, 455.112 275.683, 453.570 274.073 C 450.091 270.441, 442.455 267.078, 435.938 266.306 C 431.480 265.778, 431 265.915, 431 267.711 C 431 273.230, 441.575 281.919, 450.250 283.527 C 452.312 283.910, 453.998 284.510, 453.996 284.861 C 453.994 285.213, 453.065 287.021, 451.932 288.880 L 449.871 292.261 448.231 289.880 C 445.005 285.196, 438.698 281.716, 431.250 280.512 C 427.243 279.863, 427 279.961, 427 282.216 C 427 283.532, 428.321 286.691, 429.935 289.237 C 432.198 292.805, 434.233 294.505, 438.819 296.660 L 444.767 299.454 440.155 304.852 L 435.544 310.249 434.181 306.875 C 431.869 301.150, 428.244 297.258, 423.555 295.468 C 417.491 293.152, 416 293.903, 416 299.273 C 416 304.962, 420.376 312.001, 425.392 314.382 L 429.054 316.120 423.777 320.510 L 418.500 324.901 417.871 321.224 C 417.132 316.910, 411.997 311.949, 406.535 310.272 C 403.369 309.300, 402.824 309.413, 401.493 311.314 C 398.155 316.078, 401.293 323.638, 408.222 327.524 L 411.884 329.578 405.947 333.289 C 402.682 335.330, 399.783 337, 399.505 337 C 399.227 337, 399 335.492, 399 333.648 C 399 329.347, 395.532 324.318, 390.705 321.621 L 386.909 319.500 384.455 322.306 C 383.105 323.849, 382 325.977, 382 327.036 C 382 330.725, 385.249 337.041, 388.244 339.174 L 391.262 341.322 387.381 343.315 C 385.246 344.411, 382.062 345.909, 380.305 346.644 L 377.111 347.981 378.095 345.158 C 379.258 341.821, 378.093 338.122, 374.319 333.174 C 372.202 330.399, 371.333 329.949, 369.138 330.494 C 360.801 332.562, 358.643 343.310, 365.434 348.945 C 366.295 349.660, 367 350.598, 367 351.031 C 367 351.696, 355.766 356, 354.029 356 C 353.709 356, 353.616 354.228, 353.823 352.062 C 354.328 346.761, 350.654 340, 347.266 340 C 342.875 340, 339.153 342.757, 337.901 346.936 C 336.863 350.400, 336.981 351.352, 338.909 355.050 C 340.110 357.355, 340.960 359.337, 340.797 359.455 C 340.633 359.573, 337.350 360.341, 333.500 361.163 L 326.500 362.656 326.841 358.454 C 327.046 355.918, 326.540 353.012, 325.565 351.126 C 324.166 348.420, 323.414 348, 319.974 348 C 313.303 348, 308.933 354.237, 311.070 360.711 C 311.691 362.594, 312.042 364.280, 311.850 364.459 C 311.657 364.637, 304.751 365.756, 296.501 366.945 C 288.252 368.134, 276.374 370.193, 270.105 371.521 L 258.708 373.935 244.104 371.013 C 236.072 369.406, 224.100 367.356, 217.500 366.457 C 210.900 365.559, 205.385 364.712, 205.245 364.574 C 205.106 364.437, 205.490 362.893, 206.099 361.145 C 208.422 354.483, 203.969 348, 197.071 348 C 193.580 348, 192.839 348.411, 191.435 351.126 C 190.460 353.012, 189.954 355.918, 190.159 358.454 L 190.500 362.656 183.500 361.163 C 179.650 360.341, 176.361 359.567, 176.191 359.442 C 176.020 359.317, 176.808 357.485, 177.941 355.372 C 180.406 350.772, 180.499 348.866, 178.452 344.907 C 176.859 341.827, 173.570 340, 169.619 340 C 166.349 340, 162.682 346.867, 163.177 352.062 C 163.384 354.228, 163.291 356, 162.971 356 C 162.650 356, 159.594 355.056, 156.179 353.903 L 149.970 351.806 152.985 347.706 C 157.695 341.301, 156.625 334.474, 150.453 331.545 C 146.371 329.608, 144.818 330.189, 141.684 334.825 C 138.399 339.686, 137.743 342.195, 138.939 345.340 L 139.929 347.943 134.214 345.380 C 131.072 343.969, 127.934 342.583, 127.243 342.298 C 126.426 341.962, 127.371 340.435, 129.937 337.945 C 134.566 333.453, 136.115 328.060, 133.897 324.157 C 131.334 319.645, 129.591 319.318, 125.013 322.491 C 120.296 325.760, 118 329.512, 118 333.950 C 118 335.628, 117.758 337, 117.462 337 C 117.166 337, 114.144 335.233, 110.747 333.073 C 104.771 329.274, 104.658 329.124, 107.261 328.471 C 108.741 328.099, 111.538 326.040, 113.476 323.895 C 117.493 319.449, 118.162 314.624, 115.250 311.109 L 113.500 308.996 108.500 311.357 C 102.391 314.240, 100.287 316.496, 99.276 321.248 L 98.500 324.896 93.385 320.643 L 88.270 316.389 92.098 314.186 C 97.399 311.135, 101.213 304.403, 100.810 298.809 C 100.509 294.626, 100.403 294.504, 97.195 294.653 C 92.074 294.891, 86.560 299.144, 83.774 305.006 L 81.344 310.118 76.789 304.786 L 72.233 299.454 78.148 296.676 C 84.925 293.492, 90 287.518, 90 282.725 C 90 279.912, 89.826 279.785, 86.804 280.389 C 78.159 282.118, 75.318 283.418, 71.208 287.529 L 66.882 291.855 64.945 288.677 C 63.879 286.930, 63.006 285.220, 63.004 284.878 C 63.002 284.536, 64.688 283.985, 66.750 283.655 C 74.931 282.345, 86 273.178, 86 267.713 C 86 265.911, 85.524 265.778, 81.001 266.313 C 74.582 267.074, 67.346 270.284, 63.363 274.138 C 61.637 275.808, 59.967 276.756, 59.651 276.245 C 59.336 275.734, 58.684 272.810, 58.204 269.747 L 57.331 264.178 61.914 263.490 C 68.177 262.551, 75.416 259.683, 79.623 256.474 C 83.154 253.781, 86.905 247.572, 85.718 246.385 C 84.668 245.335, 70.043 247.884, 65.611 249.890 C 63.350 250.914, 60.506 252.708, 59.292 253.876 C 58.077 255.044, 56.920 256, 56.721 256 C 55.960 256, 55.940 245.999, 56.701 245.983 C 60.553 245.899, 72.087 242.553, 75.580 240.506 C 80.385 237.690, 85 232.303, 85 229.511 C 85 225.532, 64.883 229.982, 59.247 235.207 L 56.774 237.500 57.502 232 C 57.901 228.975, 58.429 226.162, 58.673 225.750 C 58.918 225.338, 62.385 225, 66.378 225 C 76.192 225, 83.061 222.813, 87.998 218.117 C 90.199 216.023, 92 213.822, 92 213.227 C 92 211.702, 82.189 210.654, 75.831 211.498 C 72.899 211.888, 68.362 213.267, 65.750 214.562 C 60.439 217.196, 60.451 217.209, 62.804 211.093 L 64.500 206.687 72.500 206.883 C 82.645 207.131, 89.844 205.040, 95.060 200.327 C 101.342 194.651, 99.993 193.041, 88.932 193.014 C 81.721 192.996, 73.940 195.343, 69.833 198.775 L 66.571 201.500 70.153 195 C 72.836 190.133, 74.209 188.575, 75.618 188.799 C 76.653 188.963, 81.325 189.161, 86 189.239 C 92.856 189.352, 95.464 188.946, 99.488 187.141 C 104.939 184.694, 109 181.377, 109 179.371 C 109 176.303, 90.233 175.510, 83.720 178.302 C 79.458 180.130, 79.445 180.173, 85.397 172.832 L 88.294 169.259 93.397 170.617 C 100.273 172.448, 111.184 172.368, 115.768 170.452 C 119.418 168.927, 124 165.312, 124 163.957 C 124 162.534, 112.126 160, 105.454 160 L 98.538 160 101.739 156.799 L 104.940 153.599 112.005 155.431 C 121.757 157.961, 131.507 157.254, 136.999 153.619 C 139.200 152.163, 141 150.505, 141 149.935 C 141 148.311, 134.705 146.083, 126.526 144.811 L 119.051 143.649 124.276 140.487 C 127.731 138.396, 129.743 137.693, 130.219 138.412 C 131.552 140.429, 146.002 139.535, 151.522 137.094 C 157.427 134.483, 162 130.381, 162 127.697 C 162 125.894, 161.360 125.795, 152.250 126.190 C 142.132 126.628, 138.116 127.929, 133 132.426 C 131.625 133.634, 129.375 135.097, 128 135.676 C 125.536 136.715, 125.505 136.669, 125.842 132.470 C 126.143 128.727, 125.735 127.712, 122.476 124.105 C 120.436 121.847, 118.389 120, 117.926 120 C 117.463 120, 115.265 121.730, 113.042 123.845 M 128.750 204.250 L 126.500 206.500 141.750 206.776 L 157 207.052 157.024 238.776 C 157.046 267.878, 157.435 274.267, 159.492 279.250 C 160.841 282.519, 158.241 281.027, 156.614 277.599 C 155.231 274.685, 155 269.527, 155 241.599 L 155 209 139.750 209.033 C 126.329 209.063, 124.230 209.292, 122.250 210.944 C 121.013 211.976, 120 213.086, 120 213.410 C 120 213.735, 126.951 214, 135.447 214 L 150.895 214 151.209 245.250 C 151.382 262.438, 151.904 277.288, 152.369 278.250 C 153.787 281.187, 151.440 280.232, 149.911 277.250 C 148.814 275.113, 148.432 267.983, 148.194 245.250 L 147.889 216 132.599 216 C 119.057 216, 117.121 216.209, 115.655 217.829 C 114.745 218.835, 113.999 219.847, 113.999 220.079 C 113.998 220.310, 120.748 220.353, 128.999 220.173 L 144 219.846 144 242.798 C 144 255.422, 144.219 267.269, 144.486 269.125 C 144.902 272.010, 144.844 272.137, 144.086 270 C 143.598 268.625, 143.155 257.712, 143.100 245.750 L 143 224 127.442 224 L 111.884 224 112.192 251.750 C 112.493 278.908, 112.552 279.606, 114.958 284.458 C 121.803 298.266, 134.972 304.229, 158.456 304.154 C 177.100 304.094, 191.103 299.370, 198.600 290.612 C 204.960 283.182, 206 277.317, 206 248.895 L 206 224 191.094 224 L 176.187 224 175.825 247.250 C 175.437 272.209, 174.928 274.836, 169.783 278.439 C 166.220 280.935, 164.053 280.372, 162.449 276.532 C 161.276 273.725, 161 266.298, 161 237.532 L 161 202 146 202 C 131.778 202, 130.883 202.117, 128.750 204.250 M 218.607 203.582 C 216.856 208.146, 215.506 208, 259.500 208 C 288.207 208, 301 207.671, 301 206.934 C 301 206.348, 300.534 204.998, 299.965 203.934 C 298.968 202.072, 297.455 202, 259.072 202 C 223.649 202, 219.146 202.176, 218.607 203.582 M 307.667 202.667 C 307.300 203.033, 307 218.642, 307 237.353 C 307 263.601, 307.331 272.757, 308.449 277.436 C 309.246 280.771, 310.093 284.400, 310.333 285.500 C 310.572 286.600, 310.820 272.538, 310.884 254.250 L 311 221 326.500 221 C 335.025 221, 342 220.745, 342 220.434 C 342 220.123, 341.534 218.998, 340.965 217.934 C 340.012 216.154, 338.737 216, 324.965 216 C 315.655 216, 310 215.622, 310 215 C 310 214.379, 315.536 214, 324.607 214 C 337.516 214, 339.143 213.816, 338.607 212.418 C 338.273 211.548, 338 210.423, 338 209.918 C 338 209.410, 331.185 208.902, 322.750 208.780 L 307.500 208.559 321.750 208.252 C 336.325 207.938, 336.991 207.721, 334.965 203.934 C 334.024 202.177, 332.761 202, 321.131 202 C 314.093 202, 308.033 202.300, 307.667 202.667 M 363.667 202.667 C 363.300 203.033, 363 208.883, 363 215.667 L 363 228 353 228 C 343.667 228, 343 227.867, 343 226 C 343 224.086, 342.333 224, 327.500 224 L 312 224 312 262.500 L 312 301 327.500 301 L 343 301 343 285.500 L 343 270 359.500 270 L 376 270 376 285.500 L 376 301 391.500 301 L 407 301 407 262.500 L 407 224 391.500 224 L 376 224 376 237 L 376 250 359.500 250 C 345.500 250, 343 249.773, 343 248.500 C 343 247.229, 345.444 247, 359 247 L 375 247 375 234.027 L 375 221.053 389.521 220.777 L 404.042 220.500 402.464 218.250 C 400.952 216.093, 400.287 216, 386.443 216 L 372 216 372 228.500 L 372 241 357.250 240.781 L 342.500 240.561 356.250 240.252 L 370 239.944 370 226.999 L 370 214.053 384.521 213.777 L 399.042 213.500 397.464 211.250 C 395.952 209.094, 395.286 209, 381.473 209 L 367.060 209 366.780 221.750 L 366.500 234.500 355.248 234.551 L 343.996 234.603 354.998 234.269 L 366 233.934 366 220.967 L 366 208 380.500 208 C 388.475 208, 395 207.650, 395 207.223 C 395 206.795, 394.299 205.445, 393.443 204.223 C 391.963 202.109, 391.213 202, 378.110 202 C 370.533 202, 364.033 202.300, 363.667 202.667 M 184.218 205.023 C 182.496 207.780, 183.081 207.918, 198 208.271 L 210.500 208.568 196.285 208.784 C 183.379 208.980, 181.975 209.178, 181.035 210.934 C 180.466 211.998, 180 213.123, 180 213.434 C 180 213.745, 186.525 214, 194.500 214 C 203.500 214, 209 214.379, 209 215 C 209 215.622, 203.345 216, 194.035 216 C 180.162 216, 178.993 216.144, 178.014 217.973 C 176.988 219.891, 177.375 219.954, 191.729 220.223 L 206.500 220.500 207.027 245 C 207.317 258.475, 207.665 268.600, 207.801 267.500 C 207.938 266.400, 208.938 262.843, 210.025 259.595 C 211.785 254.334, 212 250.925, 212 228.345 L 212 203 198.741 203 C 186.515 203, 185.383 203.158, 184.218 205.023 M 216.607 210.582 C 216.273 211.452, 216 212.577, 216 213.082 C 216 213.625, 233.750 214, 259.500 214 C 283.425 214, 303 213.745, 303 213.434 C 303 213.123, 302.534 211.998, 301.965 210.934 C 300.967 209.069, 299.432 209, 259.072 209 C 221.825 209, 217.147 209.174, 216.607 210.582 M 214.035 217.934 C 213.466 218.998, 213 220.123, 213 220.434 C 213 220.745, 233.925 221, 259.500 221 C 285.075 221, 306 220.745, 306 220.434 C 306 220.123, 305.534 218.998, 304.965 217.934 C 303.965 216.066, 302.403 216, 259.500 216 C 216.597 216, 215.035 216.066, 214.035 217.934 M 213 232.990 L 213 243 228.500 243 L 244 243 244 272.500 L 244 302 259.500 302 L 275 302 275 272.500 L 275 243 290.536 243 L 306.072 243 305.786 233.250 L 305.500 223.500 259.250 223.240 L 213 222.980 213 232.990" stroke="none" fill="#056835" fill-rule="evenodd"/></svg>